<svg id="Layer_1" data-name="Layer 1" xmlns="http://www.w3.org/2000/svg" xmlns:xlink="http://www.w3.org/1999/xlink" viewBox="0 0 31 31"><defs><style>.cls-1{fill:none;}.cls-2{clip-path:url(#clip-path);}.cls-3{fill:#1877f2;}.cls-4{fill:#fff;}</style><clipPath id="clip-path"><rect class="cls-1" x="0.5" y="0.5" width="30" height="30"/></clipPath></defs><g class="cls-2"><path class="cls-3" d="M30.5,15.5A15,15,0,1,0,13.16,30.32V19.84H9.35V15.5h3.81V12.2c0-3.76,2.24-5.84,5.66-5.84a23.37,23.37,0,0,1,3.36.29v3.69H20.29a2.17,2.17,0,0,0-2.45,2.35V15.5H22l-.66,4.34h-3.5V30.32A15,15,0,0,0,30.5,15.5Z"/></g><path class="cls-4" d="M21.34,19.84,22,15.5H17.84V12.69a2.17,2.17,0,0,1,2.45-2.35h1.89V6.65a23.37,23.37,0,0,0-3.36-.29c-3.42,0-5.66,2.08-5.66,5.84v3.3H9.35v4.34h3.81V30.32a15.3,15.3,0,0,0,4.68,0V19.84Z"/></svg>