<?xml version="1.0" encoding="utf-8"?>
<!-- Generator: Adobe Illustrator 24.3.0, SVG Export Plug-In . SVG Version: 6.00 Build 0)  -->
<svg version="1.1" id="Layer_1" xmlns="http://www.w3.org/2000/svg" xmlns:xlink="http://www.w3.org/1999/xlink" x="0px" y="0px"
	 viewBox="0 0 30 30" style="enable-background:new 0 0 30 30;" xml:space="preserve">
<style type="text/css">
	.st0{fill:#0A66C1;}
	.st1{fill:none;}
	.st2{fill:#FFFFFF;}
</style>
<path class="st0" d="M15,29c7.7,0,14-6.3,14-14S22.7,1,15,1S1,7.3,1,15S7.3,29,15,29"/>
<circle class="st1" cx="15" cy="15" r="14"/>
<g>
	<path class="st2" d="M22.9,22.9h-3.3v-5.1c0-1.2,0-2.8-1.7-2.8c-1.7,0-2,1.3-2,2.7v5.2h-3.3V12.3h3.1v1.4h0
		c0.6-1.1,1.8-1.8,3.1-1.7c3.3,0,3.9,2.2,3.9,5L22.9,22.9z"/>
	<path class="st2" d="M9,10.9c-1.1,0-1.9-0.9-1.9-1.9C7.1,8,7.9,7.1,9,7.1C10,7.1,10.9,8,10.9,9C10.9,10.1,10,10.9,9,10.9L9,10.9"/>
	<rect x="7.3" y="12.3" class="st2" width="3.3" height="10.6"/>
</g>
</svg>
